<?xml version="1.0" encoding="UTF-8"?>
<svg id="Layer_2" data-name="Layer 2" xmlns="http://www.w3.org/2000/svg" viewBox="0 0 671.81 625.72">
  <defs>
    <style>
      .cls-1 {
        fill: #213448;
      }
    </style>
  </defs>
  <g id="Layer_1-2" data-name="Layer 1">
    <g>
      <g>
        <path class="cls-1" d="M461.94,506.26s-47.77,7.16-67.67,68.46c0,0-4.78-48.56,37.42-78.02,42.19-29.46,80.41-15.13,94.74-7.16,14.33,7.96,19.9,27.07,19.11,39.8,0,0-14.33-34.23-50.95-28.66-36.62,5.57-30.25,51.75-8.76,60.5,21.49,8.76,74.04-10.35,89.16-16.72,15.13-6.37,57.32-11.15,83.59,35.82,0,0-26.27-30.25-69.26-22.29-42.99,7.96-50.15,31.84-82,34.23-31.84,2.39-62.1-11.94-66.87-40.6-4.78-28.66,19.11-44.58,21.49-45.38Z"/>
        <path class="cls-1" d="M434.88,583.48s13.53,40.6,62.1,42.19,84.39-43.79,109.86-44.58c25.48-.8,19.9-6.37,50.95,7.16,0,0-25.48-27.86-65.28-18.31-39.8,9.55-68.46,36.62-97.12,35.82-28.66-.8-42.99-1.59-60.5-22.29Z"/>
        <path class="cls-1" d="M553.49,620.9s48.56-30.25,61.3-32.64,39.19-3.18,57.01,32.64c0,0-24.37-25.48-60.2-16.72-35.82,8.76-42.19,15.13-58.11,16.72Z"/>
      </g>
      <path class="cls-1" d="M211.27,349.32l-99.54,99.54c-3.93,3.92-9.21,6.17-14.75,6.26-4.3-11.72-7.75-23.82-10.29-36.22v-.05c-.22-1.53-.44-3.15-.66-4.85l51.18-51.18,62.56-62.56,11.5,49.05Z"/>
      <path class="cls-1" d="M264.72,235.32l33.3,27.25-67.04,67.04c18.71-34.05,10-70.54,10-70.54l23.75-23.75Z"/>
      <path class="cls-1" d="M581.53,446.82l-39.73-39.73v93.8c-10.27-20.58-30.91-21.91-30.91-21.91v-102.79s-152.86-152.86-152.86-152.86c-5.74-5.74-15.04-5.74-20.78,0l-34.36,34.36c6.95-31.93-8.49-52.06-8.49-52.06l24.45-24.45c15.9-15.9,41.68-15.9,57.58,0l239.15,239.15c12.81,12.81,3.7,34.71-14.41,34.66h0c-7.37-.02-14.43-2.96-19.64-8.17Z"/>
      <g>
        <path class="cls-1" d="M260.27,148.08l-16.14,4.55c5.47-1.63,10.84-3.21,16.11-4.69,0,.05.03.08.03.13Z"/>
        <path class="cls-1" d="M436.15,594.65h-62.58c-96.93,0-184.14-60.28-216.91-151.47-3.68-10.24-6.79-20.21-9.4-29.85-4.92-18.17-8.09-35.16-10.05-50.5-6.05-47.26-.72-78.84-.35-80.91l.03-.11c3.95-65.53,36.51-88.9,36.51-88.9l28.77,106.27,11.21,48.01s33.8-25.95,24.8-85.37c-4.97-38.25-27.48-64.21-28.27-65.1l44.83,27.85c4.98,3.08,9.75,6.5,14.3,10.22l2.27,1.85,28.96,23.69c.05-.32.1-.63.16-.95,6.03-38.44-15.93-75.68-51.99-90.27-18.4-7.42-33.07-8.34-33.07-8.34l25.56-7.22,2.74-.78c.16-.03.31-.08.47-.14,5.48-1.63,10.85-3.21,16.11-4.69,44.49-12.55,79.5-19.24,79.5-19.24t-.06-.05c-15.24-9.35-31.38-18.09-48.44-23.62-11.93-3.84-24.48-5.68-36.96-4.53-3.61.34-6.9.87-9.72,1.61-21.9,5.68-54.73,28.35-54.75,28.37,1.26-20.4,2.08-32.09,2.08-40.11,0-15.01-2.9-17.11-11.21-39.3C167.92,17,124.12,0,124.12,0l31.02,124.8c-.69-.97-22.54-32.38-62.05-47.28-40.15-15.11-74.84,5.69-74.84,5.69l107.67,66.18c-.95-.4-26.27-11.06-65.68,3.79C20.09,168.32,0,219.39,0,219.39l147.84-39.72c-73.55,71.82-68.01,186.37-61.81,234.34.21,1.7.43,3.32.66,4.85v.05c2.54,12.4,5.99,24.5,10.29,36.22,36.11,98.57,131.47,170.43,237.9,170.43h139.52c-32.93-11.18-38.25-30.9-38.25-30.9ZM136.29,283.47c-.58,1.68-1.63,4.58-3.06,8.4l3.06-8.4Z"/>
      </g>
      <path class="cls-1" d="M319.2,300.88v116.59l-46.73-.52v-53.81h-19.75v124.51h19.75v-55.5l46.73.52v117.24h19.64v-249.02h-19.64Z"/>
      <path class="cls-1" d="M413.8,361.21c-3.25-5.98-7.76-10.62-13.54-13.91-5.78-3.28-12.3-4.92-19.53-4.92h-26.4v166.01h26.96c7.09-.04,13.51-1.74,19.28-5.09,5.76-3.36,10.23-8.01,13.4-13.96s4.76-12.67,4.76-20.18v-87.82c-.04-7.43-1.68-14.14-4.93-20.12ZM398.57,469.16c0,7.96-1.52,13.96-4.56,17.99-3.04,4.03-7.39,6.05-13.07,6.05h-6.87v-135.56h6.65c5.81,0,10.24,2.01,13.29,6.03,3.03,4.02,4.56,9.98,4.56,17.9v87.59Z"/>
    </g>
  </g>
</svg>